<svg width="12" height="12" viewBox="0 0 12 12" fill="none" xmlns="http://www.w3.org/2000/svg">
<g clip-path="url(#clip0)">
<path d="M10.0909 9.81824H1.91122C1.76075 9.81824 1.63877 9.94022 1.63849 10.0907L1.63741 10.886C1.63716 11.1835 1.75273 11.4631 1.96287 11.6735C2.17327 11.8842 2.45266 12 2.75017 12H9.25088C9.86452 12 10.3636 11.5009 10.3636 10.8873V10.0909C10.3636 9.94022 10.2417 9.81824 10.0909 9.81824Z" fill="#9E9E9E"/>
<path d="M9.00001 1.09092C8.83302 1.09092 8.66148 1.10769 8.47985 1.14152C7.85583 0.413872 6.96148 0 6.00001 0C4.19533 0 2.72728 1.46805 2.72728 3.27273C2.72728 3.4232 2.60504 3.54547 2.45455 3.54547C2.30408 3.54547 2.18181 3.42322 2.18181 3.27273C2.18181 2.68226 2.31766 2.11096 2.58558 1.57485C2.63327 1.4795 2.621 1.36524 2.55442 1.28214C2.48784 1.19958 2.37889 1.16282 2.27557 1.18813C0.935643 1.52238 0 2.71608 0 4.09091C0 5.22443 0.639205 6.25488 1.64276 6.76437L1.63982 8.99973C1.63982 9.0719 1.66833 9.14142 1.71946 9.19282C1.77085 9.24395 1.84012 9.27272 1.91255 9.27272H10.0909C10.2417 9.27272 10.3637 9.15073 10.3637 8.99998V6.76036C11.3635 6.24953 12 5.22067 12 4.09089C12 2.4367 10.6542 1.09092 9.00001 1.09092ZM3.9913 7.57458C3.94042 7.61613 3.87918 7.63638 3.81846 7.63638C3.73963 7.63638 3.66132 7.60229 3.60726 7.53676C3.51724 7.42677 2.72728 6.44347 2.72728 5.72728C2.72728 5.57653 2.84927 5.45454 3.00002 5.45454C3.15077 5.45454 3.27276 5.57653 3.27276 5.72728C3.27276 6.122 3.73672 6.83418 4.02914 7.19052C4.12446 7.30719 4.10769 7.47895 3.9913 7.57458ZM6.27272 7.36364C6.27272 7.51439 6.15074 7.63638 5.99999 7.63638C5.84924 7.63638 5.72728 7.51439 5.72728 7.36364V5.72728C5.72728 5.57653 5.84926 5.45454 6.00001 5.45454C6.15076 5.45454 6.27275 5.57653 6.27275 5.72728V7.36364H6.27272ZM8.39276 7.53676C8.33869 7.60229 8.26065 7.63638 8.18182 7.63638C8.12084 7.63638 8.05958 7.61613 8.00898 7.57458C7.8926 7.47895 7.87554 7.30719 7.97089 7.1908C8.26334 6.83364 8.72727 6.12067 8.72727 5.72728C8.72727 5.57653 8.84926 5.45454 9.00001 5.45454C9.15076 5.45454 9.27274 5.57653 9.27274 5.72728C9.27274 6.44344 8.48279 7.42677 8.39276 7.53676Z" fill="#9E9E9E"/>
</g>
<defs>
<clipPath id="clip0">
<rect width="12" height="12" fill="white"/>
</clipPath>
</defs>
</svg>
