<svg width="13" height="13" viewBox="0 0 13 13" fill="none" xmlns="http://www.w3.org/2000/svg">
<g clip-path="url(#clip0)">
<path d="M12.9873 3.82204C12.9568 3.1313 12.8451 2.65642 12.6851 2.24493C12.52 1.80815 12.2661 1.41709 11.9334 1.09201C11.6083 0.761868 11.2146 0.505332 10.7829 0.34284C10.369 0.182828 9.89665 0.0711275 9.20591 0.0406726C8.51001 0.00763851 8.28909 0 6.5241 0C4.7591 0 4.53818 0.00763851 3.84486 0.0380934C3.15412 0.0685482 2.67924 0.180348 2.26786 0.340261C1.83097 0.505332 1.43992 0.759288 1.11484 1.09201C0.784695 1.41709 0.528259 1.81072 0.365668 2.24245C0.205656 2.65642 0.0939546 3.12872 0.0634997 3.81946C0.0304657 4.51535 0.0228271 4.73628 0.0228271 6.50127C0.0228271 8.26626 0.0304657 8.48718 0.0609205 9.1805C0.0913754 9.87124 0.203175 10.3461 0.363187 10.7576C0.528259 11.1944 0.784695 11.5854 1.11484 11.9105C1.43992 12.2407 1.83355 12.4972 2.26528 12.6597C2.67924 12.8197 3.15154 12.9314 3.84238 12.9619C4.5356 12.9924 4.75662 13 6.52162 13C8.28661 13 8.50753 12.9924 9.20085 12.9619C9.89159 12.9314 10.3665 12.8197 10.7779 12.6597C11.6515 12.3219 12.3423 11.6312 12.68 10.7576C12.84 10.3436 12.9518 9.87124 12.9822 9.1805C13.0127 8.48718 13.0203 8.26626 13.0203 6.50127C13.0203 4.73628 13.0177 4.51535 12.9873 3.82204ZM11.8166 9.12971C11.7886 9.7646 11.682 10.1074 11.5931 10.336C11.3747 10.9023 10.9252 11.3518 10.3588 11.5703C10.1303 11.6592 9.78495 11.7658 9.15254 11.7937C8.46686 11.8242 8.26121 11.8318 6.52668 11.8318C4.79214 11.8318 4.58391 11.8242 3.90071 11.7937C3.26582 11.7658 2.92298 11.6592 2.69442 11.5703C2.41259 11.4661 2.15606 11.301 1.94783 11.0852C1.73197 10.8744 1.5669 10.6204 1.46274 10.3386C1.37385 10.11 1.26721 9.7646 1.23934 9.13229C1.20878 8.44661 1.20124 8.24087 1.20124 6.50633C1.20124 4.77179 1.20878 4.56357 1.23934 3.88047C1.26721 3.24558 1.37385 2.90273 1.46274 2.67417C1.5669 2.39224 1.73197 2.13581 1.95041 1.92749C2.16112 1.71162 2.41507 1.54655 2.697 1.44249C2.92556 1.3536 3.27098 1.24696 3.90329 1.21899C4.58897 1.18853 4.79472 1.18089 6.52916 1.18089C8.26627 1.18089 8.47192 1.18853 9.15512 1.21899C9.79001 1.24696 10.1328 1.3536 10.3614 1.44249C10.6432 1.54655 10.8998 1.71162 11.108 1.92749C11.3239 2.13829 11.4889 2.39224 11.5931 2.67417C11.682 2.90273 11.7886 3.24806 11.8166 3.88047C11.8471 4.56615 11.8547 4.77179 11.8547 6.50633C11.8547 8.24087 11.8471 8.44403 11.8166 9.12971Z" fill="#9E9E9E"/>
<path d="M6.52415 3.16187C4.68049 3.16187 3.18463 4.65763 3.18463 6.50139C3.18463 8.34514 4.68049 9.84091 6.52415 9.84091C8.36791 9.84091 9.86367 8.34514 9.86367 6.50139C9.86367 4.65763 8.36791 3.16187 6.52415 3.16187ZM6.52415 8.66765C5.32808 8.66765 4.35789 7.69756 4.35789 6.50139C4.35789 5.30521 5.32808 4.33512 6.52415 4.33512C7.72032 4.33512 8.69041 5.30521 8.69041 6.50139C8.69041 7.69756 7.72032 8.66765 6.52415 8.66765Z" fill="#9E9E9E"/>
<path d="M10.7754 3.02962C10.7754 3.46016 10.4263 3.80925 9.99563 3.80925C9.56509 3.80925 9.216 3.46016 9.216 3.02962C9.216 2.59899 9.56509 2.25 9.99563 2.25C10.4263 2.25 10.7754 2.59899 10.7754 3.02962Z" fill="#9E9E9E"/>
</g>
<defs>
<clipPath id="clip0">
<rect width="13" height="13" fill="white"/>
</clipPath>
</defs>
</svg>
