<svg width="13" height="13" viewBox="0 0 13 13" fill="none" xmlns="http://www.w3.org/2000/svg">
<g clip-path="url(#clip0)">
<path d="M12.9968 13V12.9994H13V8.23167C13 5.89925 12.4979 4.10254 9.77113 4.10254C8.46029 4.10254 7.58063 4.82187 7.2215 5.50383H7.18358V4.32029H4.59821V12.9994H7.29029V8.70184C7.29029 7.57029 7.50479 6.47613 8.90609 6.47613C10.2868 6.47613 10.3074 7.76746 10.3074 8.77442V13H12.9968Z" fill="#9E9E9E"/>
<path d="M0.214478 4.3208H2.90981V12.9999H0.214478V4.3208Z" fill="#9E9E9E"/>
<path d="M1.56108 0C0.699292 0 0 0.699292 0 1.56108C0 2.42287 0.699292 3.13679 1.56108 3.13679C2.42288 3.13679 3.12217 2.42287 3.12217 1.56108C3.12163 0.699292 2.42233 0 1.56108 0V0Z" fill="#9E9E9E"/>
</g>
<defs>
<clipPath id="clip0">
<rect width="13" height="13" fill="white"/>
</clipPath>
</defs>
</svg>
