<svg width="116" height="113" viewBox="0 0 116 113" fill="none" xmlns="http://www.w3.org/2000/svg">
<path d="M98.7733 106.792L2.86133 72.3942L19.9844 24.7871L79.704 10.1626L115.897 59.1856L98.7733 106.792Z" fill="#2F2E41"/>
<path d="M87.1539 97.3518L15.4785 70.069C34.0856 45.1813 42.4064 27.6255 42.4125 0L114.088 27.2828C97.4363 50.902 90.4727 68.6576 87.1539 97.3518Z" fill="#F2F2F2"/>
<path d="M92.7952 31.016L55.6621 16.8816L55.0037 18.6062L92.1368 32.7407L92.7952 31.016Z" fill="#3F3D56"/>
<path d="M90.1623 37.9145L53.0293 23.78L52.3709 25.5047L89.5039 39.6391L90.1623 37.9145Z" fill="#3F3D56"/>
<path d="M87.5295 44.8132L50.3965 30.6787L49.7381 32.4033L86.8711 46.5378L87.5295 44.8132Z" fill="#3F3D56"/>
<path d="M84.8948 51.7116L47.7617 37.5771L47.1033 39.3018L84.2364 53.4362L84.8948 51.7116Z" fill="#3F3D56"/>
<path d="M82.2619 58.61L45.1289 44.4756L44.4705 46.2002L81.6035 60.3346L82.2619 58.61Z" fill="#3F3D56"/>
<path d="M79.6291 65.5085L42.4961 51.374L41.8377 53.0987L78.9707 67.2331L79.6291 65.5085Z" fill="#3F3D56"/>
<path d="M76.9963 72.4071L39.8633 58.2727L39.2049 59.9973L76.338 74.1318L76.9963 72.4071Z" fill="#3F3D56"/>
<path d="M74.3616 79.3056L37.2285 65.1711L36.5701 66.8958L73.7032 81.0302L74.3616 79.3056Z" fill="#3F3D56"/>
<path d="M96.5585 112.953L0.646484 78.555L19.9854 24.7871L60.4883 62.7092L115.898 59.1855L96.5585 112.953Z" fill="#3F3D56"/>
<path d="M47.8239 96.0108L0 78.859L11.6527 46.46L12.6036 46.8008L1.2922 78.2504L48.1652 95.0613L47.8239 96.0108Z" fill="#6C63FF"/>
<path d="M30.825 61.5551L16.8027 56.5261L14.7882 62.1269L28.8105 67.1559L30.825 61.5551Z" fill="#F6CFB6"/>
</svg>
