<svg width="13" height="13" viewBox="0 0 13 13" fill="none" xmlns="http://www.w3.org/2000/svg">
<g clip-path="url(#clip0)">
<path d="M6.67658 0C3.11296 0.000541667 1.21875 2.28367 1.21875 4.77317C1.21875 5.92746 1.86388 7.36775 2.89683 7.82438C3.1915 7.95708 3.1525 7.79513 3.406 6.82554C3.42604 6.74483 3.41575 6.67496 3.35075 6.59967C1.87417 4.89179 3.06258 1.38071 6.46587 1.38071C11.3912 1.38071 10.471 8.19596 7.32279 8.19596C6.51137 8.19596 5.90687 7.55896 6.09808 6.77083C6.32992 5.83213 6.78383 4.823 6.78383 4.14646C6.78383 2.44129 4.24342 2.69425 4.24342 4.95354C4.24342 5.65175 4.49042 6.123 4.49042 6.123C4.49042 6.123 3.67304 9.425 3.52137 10.042C3.26462 11.0863 3.55604 12.7768 3.5815 12.9225C3.59721 13.0027 3.68712 13.0282 3.7375 12.9621C3.81821 12.8565 4.80621 11.447 5.083 10.4282C5.18375 10.0571 5.59704 8.55129 5.59704 8.55129C5.8695 9.04313 6.65492 9.45479 7.49179 9.45479C9.98129 9.45479 11.7807 7.26646 11.7807 4.55108C11.772 1.94783 9.54417 0 6.67658 0V0Z" fill="#9E9E9E"/>
</g>
<defs>
<clipPath id="clip0">
<rect width="13" height="13" fill="white"/>
</clipPath>
</defs>
</svg>
