<svg width="18" height="17" viewBox="0 0 18 17" fill="none" xmlns="http://www.w3.org/2000/svg">
<g clip-path="url(#clip0)">
<path d="M17.5033 3.18242C16.8802 3.45573 16.2163 3.6369 15.5241 3.72486C16.2362 3.2997 16.7797 2.6316 17.0352 1.82631C16.3713 2.22215 15.6382 2.50175 14.857 2.65778C14.2266 1.98653 13.3281 1.5708 12.348 1.5708C10.4463 1.5708 8.91529 3.11435 8.91529 5.00662C8.91529 5.27888 8.93833 5.54068 8.99488 5.78991C6.1392 5.65063 3.61234 4.28196 1.91486 2.19702C1.6185 2.71119 1.44467 3.2997 1.44467 3.93325C1.44467 5.12285 2.05727 6.17737 2.97042 6.78788C2.41855 6.77741 1.87716 6.61719 1.41849 6.36482C1.41849 6.37529 1.41849 6.3889 1.41849 6.40251C1.41849 8.07173 2.60914 9.4582 4.17049 9.77759C3.89089 9.85404 3.58616 9.89069 3.26991 9.89069C3.05 9.89069 2.828 9.87812 2.61961 9.83205C3.06467 11.1923 4.32757 12.1924 5.82924 12.2249C4.66058 13.1391 3.17671 13.6899 1.57033 13.6899C1.28864 13.6899 1.01846 13.6773 0.748291 13.6428C2.26985 14.624 4.0731 15.1842 6.01773 15.1842C12.3385 15.1842 15.7943 9.94828 15.7943 5.40978C15.7943 5.25794 15.789 5.11133 15.7817 4.96578C16.4634 4.48198 17.0362 3.87775 17.5033 3.18242Z" fill="#9E9E9E"/>
</g>
<defs>
<clipPath id="clip0">
<rect width="16.755" height="16.755" fill="white" transform="translate(0.748291)"/>
</clipPath>
</defs>
</svg>
