<svg xmlns="http://www.w3.org/2000/svg" xmlns:xlink="http://www.w3.org/1999/xlink" width="690" height="167" viewBox="0 0 690 167">
  <defs>
    <clipPath id="clip-path">
      <rect x="42" y="19" width="690" height="167" fill="none"/>
    </clipPath>
  </defs>
  <g id="Scroll_Group_1" data-name="Scroll Group 1" transform="translate(-42 -19)" clip-path="url(#clip-path)" style="isolation: isolate">
    <g id="Info_1_" data-name="Info (1)" transform="translate(-222 12)">
      <rect id="Rectangle_1" data-name="Rectangle 1" width="690" height="174" transform="translate(222)" fill="#f6cfb6"/>
      <g id="Group_1" data-name="Group 1">
        <circle id="Ellipse_1" data-name="Ellipse 1" cx="186" cy="186" r="186" transform="translate(690 -12)" fill="#ffdcc6"/>
      </g>
      <path id="Path_2" data-name="Path 2" d="M297.482,121a2.4,2.4,0,0,1-2.5-2.5v-65a2.435,2.435,0,0,1,.7-1.8,2.661,2.661,0,0,1,1.8-.7h14.3a2.4,2.4,0,0,1,2.5,2.5v65a2.665,2.665,0,0,1-.7,1.8,2.436,2.436,0,0,1-1.8.7Zm31.81,0a2.4,2.4,0,0,1-2.5-2.5v-47a2.435,2.435,0,0,1,.7-1.8,2.661,2.661,0,0,1,1.8-.7h12.3a2.4,2.4,0,0,1,2.5,2.5v3.8a19.7,19.7,0,0,1,6.9-5.3,22.98,22.98,0,0,1,9.8-2,19.478,19.478,0,0,1,10.1,2.6,17.513,17.513,0,0,1,7,7.7,26.818,26.818,0,0,1,2.6,12.3v27.9a2.665,2.665,0,0,1-.7,1.8,2.436,2.436,0,0,1-1.8.7h-13.3a2.787,2.787,0,0,1-1.9-.7,2.436,2.436,0,0,1-.7-1.8V91.2q0-4.5-2.2-6.9-2.1-2.4-6.2-2.4a8.135,8.135,0,0,0-6.3,2.5,9.433,9.433,0,0,0-2.3,6.8v27.3a2.665,2.665,0,0,1-.7,1.8,2.436,2.436,0,0,1-1.8.7Zm70.162,0a2.791,2.791,0,0,1-1.9-.7,2.44,2.44,0,0,1-.7-1.8V82.6h-7.5a2.792,2.792,0,0,1-1.9-.7,2.439,2.439,0,0,1-.7-1.8V71.5a2.439,2.439,0,0,1,.7-1.8,2.792,2.792,0,0,1,1.9-.7h7.5V66q0-10,5.8-14.5t16.6-4.5h7.9a2.434,2.434,0,0,1,1.8.7,2.281,2.281,0,0,1,.8,1.8v8.6a2.281,2.281,0,0,1-.8,1.8,2.434,2.434,0,0,1-1.8.7h-7.1q-3.2,0-4.6,1.5a6.313,6.313,0,0,0-1.3,4.4V69h12a2.434,2.434,0,0,1,1.8.7,2.281,2.281,0,0,1,.8,1.8v8.6a2.281,2.281,0,0,1-.8,1.8,2.434,2.434,0,0,1-1.8.7h-12v35.9a2.66,2.66,0,0,1-.7,1.8,2.433,2.433,0,0,1-1.8.7Zm60.639,1q-12.6,0-19.4-5.8-6.7-5.9-7.3-16.7-.1-1.3-.1-4.5t.1-4.5q.6-10.6,7.5-16.5,7-6,19.2-6t19.1,6q7,5.9,7.6,16.5.2,2.6.2,4.5t-.2,4.5q-.6,10.8-7.4,16.7Q472.692,122,460.093,122Zm0-12.6q4.1,0,6.1-2.5,2-2.6,2.3-7.9.1-1,.1-4t-.1-4q-.3-5.2-2.3-7.8t-6.1-2.6q-4.1,0-6.1,2.6t-2.3,7.8l-.1,4,.1,4q.3,5.3,2.3,7.9Q455.992,109.4,460.093,109.4Z" fill="#ffdcc6"/>
    </g>
  </g>
</svg>
