<svg width="64" height="64" viewBox="0 0 64 64" fill="none" xmlns="http://www.w3.org/2000/svg">
<g clip-path="url(#clip0)">
<path d="M31.9316 48.2991H33.8106V50.1781H31.9316V48.2991Z" fill="#FF9D5D"/>
<path d="M13.1757 38.6792C13.6407 38.266 14.106 37.8984 14.5584 37.5868L13.4922 36.0396C12.9766 36.3948 12.4501 36.8103 11.9277 37.2745L13.1757 38.6792Z" fill="#FF9D5D"/>
<path d="M16.0707 36.6695C16.5497 36.4151 17.0902 36.1731 17.6772 35.95L17.0097 34.1936C16.3498 34.4444 15.7373 34.7191 15.1895 35.01L16.0707 36.6695Z" fill="#FF9D5D"/>
<path d="M63.8159 30.4563C63.4747 29.2918 62.6967 28.3378 61.6624 27.7739C62.2337 25.4561 60.5657 22.8634 58.2195 22.4227C58.1167 20.0364 55.7864 18.0163 53.4099 18.2531C52.6387 15.9954 49.8378 14.7149 47.6257 15.6092C46.2478 13.6593 43.1959 13.2227 41.3262 14.7073C39.4565 13.2231 36.4045 13.6591 35.0268 15.6092C32.8152 14.7152 30.0137 15.9954 29.2427 18.2529C26.8659 18.0166 24.536 20.0361 24.433 22.4222C22.646 22.7712 21.1553 24.3953 20.93 26.1976C19.2494 25.8007 17.3459 26.5002 16.343 27.8868C14.1314 26.9928 11.3299 28.2731 10.5589 30.5306C8.18242 30.2948 5.85192 32.3136 5.74929 34.7002C3.40304 35.1413 1.73504 37.7336 2.30642 40.0514C1.27204 40.6152 0.49417 41.5692 0.15292 42.7336C-0.64258 45.1049 1.87379 48.0992 2.91317 50.1781H30.0523V48.2991H4.81679C6.42879 25.9872 38.8635 26.0027 40.4685 48.2991H35.6895V50.1781H42.372L44.2417 46.9161C45.179 45.3153 45.5623 44.2006 45.1323 42.7339C44.791 41.5694 44.0132 40.6154 42.9788 40.0516C43.55 37.7336 41.882 35.1411 39.5358 34.7003C39.4332 32.3137 37.1027 30.2949 34.7263 30.5307C33.9552 28.2732 31.1538 26.9924 28.942 27.8868C28.4332 27.2056 27.7415 26.6868 26.9448 26.3853C36.5689 12.9358 58.4888 19.5499 59.152 36.0213H44.377L45.129 37.9003H61.0555L62.9252 34.6384C63.9128 33.0819 64.2459 31.9229 63.8159 30.4563ZM47.7757 17.6252C49.2943 16.5741 51.5892 17.6233 51.7875 19.4598L51.9072 20.3157C50.417 19.3652 48.7913 18.6096 47.0662 18.0841L47.7757 17.6252ZM44.3954 15.7179C45.705 15.8972 46.3197 16.8537 46.7577 17.9921C45.0833 17.5119 43.3184 17.2491 41.4954 17.2336C42.2255 16.2692 43.1023 15.5204 44.3954 15.7179ZM38.2574 15.7179C39.5519 15.5203 40.427 16.2699 41.1577 17.2342C39.3519 17.2494 37.5852 17.5072 35.8969 17.9881C36.3338 16.8507 36.951 15.8963 38.2574 15.7179ZM32.3703 17.4469C33.5579 16.8903 34.6082 17.3639 35.5829 18.0817C33.8735 18.5996 32.2479 19.3457 30.7478 20.2992C30.8464 19.0827 31.1642 17.9893 32.3703 17.4469ZM23.345 25.1842C24.0702 24.2304 25.1664 24.1427 26.2729 24.2046C25.7628 24.8076 25.2862 25.4458 24.8445 26.1158C24.0957 26.1969 23.3827 26.4653 22.7667 26.8964C22.7485 26.2866 22.9483 25.6827 23.345 25.1842ZM19.5738 27.9956C20.8684 27.7977 21.7432 28.5473 22.4737 29.5114C20.6507 29.5268 18.8857 29.7897 17.2113 30.2699C17.649 29.1313 18.265 28.1743 19.5738 27.9956ZM13.6867 29.7247C14.8763 29.1672 15.927 29.6434 16.903 30.3619C15.1779 30.8876 13.552 31.6431 12.0619 32.5936C12.1653 31.3648 12.4672 30.2772 13.6867 29.7247ZM2.49117 45.7173C1.30642 44.1946 1.89279 42.0174 3.73204 41.4848C3.73192 41.4848 4.61429 41.2286 4.61429 41.2286C3.87029 42.8966 3.35167 44.6861 3.09617 46.5583L2.49117 45.7173ZM4.70717 41.0236C4.12692 39.9232 3.76055 38.8182 4.50417 37.6814C5.23179 36.5404 6.36717 36.4103 7.60517 36.4823C6.44392 37.8492 5.46517 39.3754 4.70717 41.0236ZM7.77717 36.2816C7.52829 35.0707 7.50179 33.9169 8.52417 33.0424C9.51604 32.1647 10.6679 32.3379 11.8142 32.7551C10.3135 33.7442 8.95504 34.9319 7.77717 36.2816ZM43.3293 43.2626C43.5824 44.8236 42.1892 46.5583 42.1892 46.5583C41.9337 44.6861 41.415 42.8967 40.671 41.2287C41.8024 41.4967 43.1254 41.9733 43.3293 43.2626ZM38.5845 36.4784C40.427 36.4209 41.785 38.5401 40.9619 40.1901L40.5783 41.0238C39.8203 39.3756 38.8415 37.8493 37.6803 36.4824C37.6803 36.4824 38.5805 36.4784 38.5845 36.4784ZM34.3024 32.5078C36.0585 31.9247 37.9674 33.5804 37.6389 35.4011L37.5084 36.2817C36.3305 34.9319 34.9719 33.7443 33.4713 32.7551L34.3024 32.5078ZM29.092 29.9028C30.6114 28.8517 32.9053 29.9011 33.1039 31.7374L33.2235 32.5934C31.7334 31.6429 30.1075 30.8873 28.3824 30.3618L29.092 29.9028ZM27.726 29.5017L28.0742 30.2698C26.3998 29.7897 24.6348 29.5268 22.8117 29.5113L23.3557 28.8776C24.515 27.4369 27.0159 27.7944 27.726 29.5017ZM26.4588 23.9909C26.2099 22.7843 26.1905 21.6352 27.2078 20.7648C28.1932 19.8936 29.3404 20.0562 30.4809 20.4724C28.9989 21.4483 27.6449 22.6288 26.4588 23.9909ZM52.155 20.4774C53.3025 20.0604 54.4522 19.8871 55.445 20.7648C56.467 21.6386 56.441 22.7946 56.1919 24.0039C55.0142 22.6543 53.6557 21.4666 52.155 20.4774ZM56.364 24.2047C57.5974 24.1308 58.7442 24.2671 59.4649 25.4039C60.2084 26.5397 59.8418 27.6473 59.2619 28.7461C58.504 27.0978 57.5253 25.5716 56.364 24.2047ZM61.4779 33.4397L60.8728 34.2807C60.6174 32.4084 60.0988 30.6191 59.3548 28.9511L60.2369 29.2073C62.0253 29.6667 62.6965 31.6753 61.4779 33.4397Z" fill="#333333"/>
<path d="M31.8584 26.4013C32.3235 25.9882 32.7886 25.6206 33.241 25.309L32.175 23.7617C31.6592 24.117 31.1329 24.5325 30.6104 24.9967L31.8584 26.4013Z" fill="#FF9D5D"/>
<path d="M34.7543 24.3919C35.2332 24.1375 35.7737 23.8955 36.3607 23.6724L35.6933 21.916C35.0332 22.1668 34.4208 22.4415 33.873 22.7324L34.7543 24.3919Z" fill="#FF9D5D"/>
</g>
<defs>
<clipPath id="clip0">
<rect width="64" height="64" fill="white"/>
</clipPath>
</defs>
</svg>
