<svg width="67" height="67" viewBox="0 0 67 67" fill="none" xmlns="http://www.w3.org/2000/svg">
<path d="M21.3049 23.4842C21.4546 23.5663 21.6162 23.6052 21.7756 23.6052C22.1225 23.6052 22.4588 23.4209 22.6372 23.0952L22.9592 22.5074C23.2198 22.0321 23.0455 21.4356 22.5702 21.1751C22.0948 20.9147 21.4982 21.0889 21.2379 21.5643L20.9159 22.1521C20.6553 22.6272 20.8296 23.2238 21.3049 23.4842Z" fill="#333333"/>
<path d="M23.6796 26.4721L24.2401 26.8398C24.4061 26.9487 24.5927 27.0007 24.7775 27.0007C25.0971 27.0007 25.4106 26.8447 25.5991 26.5573C25.8964 26.1042 25.77 25.4958 25.3168 25.1983L24.7563 24.8306C24.303 24.5333 23.6945 24.6596 23.3973 25.113C23.0999 25.5663 23.2263 26.1747 23.6796 26.4721Z" fill="#333333"/>
<path d="M21.5615 25.609C21.431 25.083 20.8989 24.7622 20.3727 24.8926L19.7221 25.0538C19.1959 25.1841 18.8752 25.7163 19.0056 26.2425C19.1165 26.6893 19.517 26.988 19.9575 26.988C20.0356 26.988 20.1152 26.9786 20.1945 26.9588L20.8451 26.7976C21.3711 26.6674 21.6918 26.1352 21.5615 25.609Z" fill="#333333"/>
<path d="M32.5588 23.4842C32.7085 23.5663 32.8701 23.6052 33.0295 23.6052C33.3764 23.6052 33.7127 23.4209 33.8911 23.0952L34.2131 22.5074C34.4737 22.0321 34.2994 21.4356 33.8241 21.1751C33.3486 20.9147 32.7522 21.0889 32.4918 21.5643L32.1698 22.1521C31.9092 22.6272 32.0835 23.2238 32.5588 23.4842Z" fill="#FF9D5D"/>
<path d="M34.9335 26.4721L35.494 26.8398C35.66 26.9487 35.8466 27.0007 36.0314 27.0007C36.351 27.0007 36.6645 26.8447 36.853 26.5573C37.1503 26.1042 37.0239 25.4958 36.5707 25.1983L36.0102 24.8306C35.5569 24.5333 34.9486 24.6596 34.6512 25.113C34.3538 25.5663 34.4802 26.1747 34.9335 26.4721Z" fill="#FF9D5D"/>
<path d="M31.2113 26.9881C31.2894 26.9881 31.369 26.9787 31.4483 26.959L32.0989 26.7977C32.6251 26.6674 32.9458 26.1352 32.8154 25.609C32.6849 25.083 32.1527 24.7622 31.6266 24.8926L30.976 25.0538C30.4498 25.1841 30.1291 25.7163 30.2596 26.2425C30.3703 26.6894 30.7708 26.9881 31.2113 26.9881Z" fill="#FF9D5D"/>
<path d="M45.145 23.0952L45.4671 22.5074C45.7276 22.0321 45.5533 21.4356 45.078 21.1751C44.6025 20.9147 44.0061 21.0889 43.7457 21.5643L43.4237 22.1521C43.1631 22.6274 43.3374 23.2238 43.8127 23.4844C43.9624 23.5664 44.124 23.6053 44.2834 23.6053C44.6303 23.6053 44.9666 23.421 45.145 23.0952Z" fill="#333333"/>
<path d="M47.8245 25.1983L47.264 24.8306C46.8107 24.5333 46.2022 24.6596 45.9051 25.113C45.6078 25.5662 45.7342 26.1746 46.1873 26.472L46.7478 26.8397C46.9139 26.9486 47.1005 27.0005 47.2852 27.0005C47.6048 27.0005 47.9183 26.8446 48.1068 26.5572C48.4042 26.104 48.2778 25.4957 47.8245 25.1983Z" fill="#333333"/>
<path d="M42.8805 24.8926L42.2299 25.0538C41.7037 25.1842 41.383 25.7164 41.5135 26.2425C41.6243 26.6893 42.0249 26.9881 42.4653 26.9881C42.5434 26.9881 42.623 26.9786 42.7023 26.9589L43.3529 26.7977C43.8791 26.6673 44.1999 26.1351 44.0694 25.6089C43.9389 25.083 43.4069 24.7621 42.8805 24.8926Z" fill="#333333"/>
<path d="M16.1487 32.111C16.4956 32.111 16.8319 31.9268 17.0102 31.601L17.3323 31.0132C17.5928 30.5379 17.4185 29.9415 16.9432 29.6809C16.4677 29.4205 15.8714 29.5947 15.611 30.0701L15.2889 30.6579C15.0284 31.1332 15.2027 31.7297 15.678 31.9902C15.8277 32.0721 15.9893 32.111 16.1487 32.111Z" fill="#333333"/>
<path d="M18.613 35.3455C18.7791 35.4543 18.9657 35.5063 19.1505 35.5063C19.47 35.5063 19.7836 35.3503 19.972 35.0629C20.2693 34.6098 20.1429 34.0014 19.6897 33.704L19.1293 33.3362C18.6761 33.0389 18.0675 33.1652 17.7703 33.6186C17.473 34.0718 17.5994 34.6802 18.0526 34.9776L18.613 35.3455Z" fill="#333333"/>
<path d="M14.7458 33.3986L14.0951 33.5598C13.569 33.6901 13.2482 34.2223 13.3787 34.7485C13.4895 35.1953 13.8901 35.494 14.3306 35.494C14.4087 35.494 14.4883 35.4846 14.5676 35.4648L15.2182 35.3036C15.7444 35.1733 16.0651 34.6411 15.9346 34.1149C15.8042 33.589 15.272 33.2677 14.7458 33.3986Z" fill="#333333"/>
<path d="M28.1971 29.6809C27.7217 29.4205 27.1253 29.5947 26.8649 30.0701L26.5428 30.6579C26.2823 31.1332 26.4566 31.7297 26.9319 31.9902C27.0816 32.0723 27.2432 32.1111 27.4026 32.1111C27.7495 32.1111 28.0858 31.9269 28.2641 31.6012L28.5862 31.0134C28.8467 30.5379 28.6726 29.9415 28.1971 29.6809Z" fill="#FF9D5D"/>
<path d="M30.9437 33.7042L30.3832 33.3365C29.93 33.0392 29.3214 33.1655 29.0242 33.6189C28.7269 34.072 28.8533 34.6804 29.3065 34.9779L29.8669 35.3456C30.033 35.4544 30.2196 35.5064 30.4044 35.5064C30.7239 35.5064 31.0375 35.3504 31.2259 35.063C31.5234 34.6099 31.397 34.0015 30.9437 33.7042Z" fill="#FF9D5D"/>
<path d="M25.9997 33.3986L25.3491 33.5598C24.8229 33.6901 24.5021 34.2223 24.6326 34.7485C24.7434 35.1953 25.144 35.494 25.5845 35.494C25.6626 35.494 25.7422 35.4846 25.8215 35.4648L26.4721 35.3036C26.9983 35.1733 27.319 34.6411 27.1885 34.1149C27.0581 33.589 26.5261 33.2677 25.9997 33.3986Z" fill="#FF9D5D"/>
<path d="M39.4511 29.6809C38.9757 29.4205 38.3792 29.5947 38.1188 30.0701L37.7967 30.6579C37.5362 31.1332 37.7105 31.7297 38.1858 31.9902C38.3355 32.0723 38.4971 32.1111 38.6565 32.1111C39.0034 32.1111 39.3397 31.9269 39.5181 31.6012L39.8401 31.0134C40.1007 30.5379 39.9265 29.9415 39.4511 29.6809Z" fill="#FF9D5D"/>
<path d="M40.5605 34.9777L41.1209 35.3455C41.287 35.4543 41.4736 35.5063 41.6584 35.5063C41.9779 35.5063 42.2915 35.3503 42.4799 35.0629C42.7772 34.6098 42.6508 34.0014 42.1976 33.704L41.6372 33.3362C41.1839 33.0389 40.5755 33.1652 40.2782 33.6186C39.9808 34.0719 40.1072 34.6803 40.5605 34.9777Z" fill="#FF9D5D"/>
<path d="M37.2536 33.3986L36.603 33.5598C36.0768 33.6901 35.756 34.2223 35.8865 34.7485C35.9973 35.1953 36.3979 35.494 36.8384 35.494C36.9165 35.494 36.9961 35.4846 37.0754 35.4648L37.726 35.3036C38.2522 35.1733 38.5729 34.6411 38.4424 34.1149C38.312 33.589 37.7798 33.2677 37.2536 33.3986Z" fill="#FF9D5D"/>
<path d="M49.4397 31.9901C49.5894 32.0721 49.751 32.111 49.9104 32.111C50.2573 32.111 50.5936 31.9268 50.772 31.601L51.094 31.0132C51.3545 30.5379 51.1802 29.9415 50.705 29.6809C50.2296 29.4205 49.633 29.5947 49.3727 30.0701L49.0506 30.6579C48.7901 31.1331 48.9644 31.7297 49.4397 31.9901Z" fill="#333333"/>
<path d="M51.8144 34.9777L52.3748 35.3455C52.5409 35.4543 52.7275 35.5063 52.9123 35.5063C53.2318 35.5063 53.5454 35.3503 53.7338 35.0629C54.0311 34.6098 53.9047 34.0014 53.4516 33.704L52.8911 33.3362C52.4378 33.0389 51.8293 33.1652 51.5321 33.6186C51.2347 34.0719 51.3611 34.6803 51.8144 34.9777Z" fill="#333333"/>
<path d="M48.0921 35.4939C48.1703 35.4939 48.2498 35.4845 48.3291 35.4647L48.9798 35.3035C49.5059 35.1732 49.8267 34.641 49.6962 34.1148C49.5657 33.5887 49.0334 33.2675 48.5075 33.3983L47.8569 33.5596C47.3307 33.6899 47.0099 34.2221 47.1404 34.7483C47.2511 35.1952 47.6517 35.4939 48.0921 35.4939Z" fill="#333333"/>
<path d="M64.0557 36.1825H56.2983C56.749 35.2783 56.9893 34.2758 56.9893 33.2382C56.9893 29.8281 54.3929 27.0136 51.0734 26.6661C51.2635 26.0434 51.3623 25.3922 51.3623 24.7323C51.3623 23.9129 51.2139 23.1128 50.9213 22.3542C50.7262 21.8484 50.158 21.5965 49.6524 21.7918C49.1466 21.9867 48.8948 22.5549 49.0899 23.0606C49.2952 23.5929 49.3994 24.1553 49.3994 24.7322C49.3994 25.4531 49.2315 26.158 48.915 26.7956C47.3275 27.1566 45.9561 28.09 45.0296 29.3673C44.8462 29.3782 44.6618 29.3782 44.4783 29.3673C43.5518 28.09 42.1804 27.1566 40.593 26.7956C40.2764 26.158 40.1085 25.4531 40.1085 24.7322C40.1085 22.1706 42.1925 20.0867 44.754 20.0867C45.4899 20.0867 46.1931 20.2533 46.844 20.582C47.328 20.8263 47.9181 20.6322 48.1625 20.1482C48.4068 19.6644 48.2125 19.0741 47.7287 18.8298C46.8009 18.3614 45.8 18.1238 44.754 18.1238C42.3782 18.1238 40.2919 19.3846 39.1271 21.2717C37.9623 19.3846 35.876 18.1238 33.5001 18.1238C31.1242 18.1238 29.038 19.3846 27.8732 21.2717C26.7084 19.3846 24.6221 18.1238 22.2462 18.1238C18.6023 18.1238 15.6378 21.0883 15.6378 24.7322C15.6378 25.3922 15.7366 26.0437 15.9269 26.6665C14.2391 26.8435 12.6794 27.6619 11.5703 28.9739C11.2204 29.3879 11.2724 30.0071 11.6863 30.3569C12.1004 30.7071 12.7195 30.655 13.0694 30.241C13.955 29.1933 15.2488 28.5924 16.6191 28.5924C16.853 28.5924 17.0826 28.6102 17.3073 28.6437C17.3116 28.6442 17.316 28.6447 17.3203 28.6454C19.5504 28.9847 21.2646 30.9149 21.2646 33.2382C21.2646 34.3231 20.893 35.354 20.2121 36.1825H13.0257C12.3934 35.4116 12.0243 34.4573 11.9785 33.455C11.9537 32.9135 11.4931 32.4945 10.9533 32.5195C10.4118 32.5442 9.99295 33.0033 10.0177 33.5448C10.0599 34.4705 10.2965 35.367 10.7026 36.1825H2.94434C1.32076 36.1825 0 37.5034 0 39.1268C0 40.7503 1.32076 42.0712 2.94434 42.0712H3.52051L6.38384 46.5311C7.32642 47.9994 8.93076 48.8759 10.6755 48.8759H46.0323C46.5743 48.8759 47.0137 48.4366 47.0137 47.8944C47.0137 47.3523 46.5743 46.913 46.0323 46.913H10.6755C9.60233 46.913 8.61539 46.3738 8.03568 45.4708L5.85308 42.0712H61.1469L58.9643 45.4708C58.3846 46.3738 57.3977 46.913 56.3245 46.913H50.234C49.692 46.913 49.2526 47.3523 49.2526 47.8944C49.2526 48.4366 49.692 48.8759 50.234 48.8759H56.3245C58.0692 48.8759 59.6736 47.9994 60.616 46.5311L63.4794 42.0712H64.0555C65.6791 42.0712 66.9999 40.7503 66.9999 39.1268C66.9999 37.5034 65.6792 36.1825 64.0557 36.1825ZM49.6721 28.6467C49.6745 28.6464 49.6768 28.6461 49.6792 28.6457C49.9081 28.6107 50.1424 28.5927 50.381 28.5927C52.9426 28.5927 55.0265 30.6766 55.0265 33.2382C55.0265 34.3231 54.6549 35.354 53.974 36.1825H46.788C46.1071 35.354 45.7355 34.3231 45.7355 33.2382C45.7354 30.9175 47.4457 28.9889 49.6721 28.6467ZM43.7725 33.2382C43.7725 34.3231 43.4008 35.354 42.72 36.1825H35.5339C34.8531 35.354 34.4814 34.3231 34.4814 33.2382C34.4814 30.9175 36.1918 28.9889 38.4182 28.6467C38.4206 28.6464 38.4229 28.6461 38.4253 28.6457C38.6542 28.6107 38.8885 28.5927 39.1271 28.5927C39.3656 28.5927 39.5999 28.6109 39.8289 28.6457C39.8312 28.6459 39.8336 28.6463 39.8359 28.6467C42.0621 28.9889 43.7725 30.9175 43.7725 33.2382ZM24.28 36.1825C23.5992 35.354 23.2275 34.3231 23.2275 33.2382C23.2275 30.9175 24.9379 28.9889 27.1643 28.6467C27.1667 28.6464 27.169 28.6461 27.1714 28.6457C27.4003 28.6107 27.6346 28.5927 27.8732 28.5927C28.107 28.5927 28.3368 28.6105 28.5615 28.644C28.5657 28.6445 28.57 28.645 28.5742 28.6455C30.8042 28.9846 32.5186 30.9149 32.5186 33.2382C32.5186 34.3231 32.1469 35.354 31.4661 36.1825H24.28ZM33.5 20.0868C36.0616 20.0868 38.1455 22.1707 38.1455 24.7323C38.1455 25.4532 37.9776 26.1582 37.6611 26.7957C36.0736 27.1567 34.7022 28.0902 33.7757 29.3675C33.5923 29.3783 33.4079 29.3783 33.2244 29.3675C32.2979 28.0902 30.9265 27.1567 29.3391 26.7957C29.0225 26.1582 28.8546 25.4532 28.8546 24.7323C28.8545 22.1707 30.9384 20.0868 33.5 20.0868ZM18.085 26.7957C17.7685 26.1582 17.6006 25.4532 17.6006 24.7323C17.6006 22.1707 19.6845 20.0868 22.2461 20.0868C24.8077 20.0868 26.8916 22.1707 26.8916 24.7323C26.8916 25.4532 26.7237 26.1582 26.4072 26.7957C24.8197 27.1567 23.4483 28.0902 22.5218 29.3675C22.3383 29.3783 22.154 29.3783 21.9705 29.3675C21.0439 28.0902 19.6725 27.1567 18.085 26.7957ZM64.0557 40.1083H2.94434C2.4031 40.1083 1.96289 39.6681 1.96289 39.1268C1.96289 38.5856 2.4031 38.1454 2.94434 38.1454H64.0557C64.5969 38.1454 65.0371 38.5856 65.0371 39.1268C65.0371 39.6681 64.5969 40.1083 64.0557 40.1083Z" fill="#333333"/>
</svg>
