<svg width="52" height="52" viewBox="0 0 52 52" fill="none" xmlns="http://www.w3.org/2000/svg">
<g clip-path="url(#clip0)">
<path d="M35.1406 44.2812C35.1406 44.8422 34.686 45.2969 34.125 45.2969C33.564 45.2969 33.1094 44.8422 33.1094 44.2812C33.1094 43.7203 33.564 43.2656 34.125 43.2656C34.686 43.2656 35.1406 43.7203 35.1406 44.2812Z" fill="#333333"/>
<path d="M41.2344 34.125C41.2344 34.686 40.7797 35.1406 40.2188 35.1406C39.6578 35.1406 39.2031 34.686 39.2031 34.125C39.2031 33.564 39.6578 33.1094 40.2188 33.1094C40.7797 33.1094 41.2344 33.564 41.2344 34.125Z" fill="#333333"/>
<path d="M37.1719 28.0312C37.1719 28.5922 36.7172 29.0469 36.1562 29.0469C35.5953 29.0469 35.1406 28.5922 35.1406 28.0312C35.1406 27.4703 35.5953 27.0156 36.1562 27.0156C36.7172 27.0156 37.1719 27.4703 37.1719 28.0312Z" fill="#333333"/>
<path d="M33.1094 34.125C33.1094 34.686 32.6547 35.1406 32.0938 35.1406C31.5328 35.1406 31.0781 34.686 31.0781 34.125C31.0781 33.564 31.5328 33.1094 32.0938 33.1094C32.6547 33.1094 33.1094 33.564 33.1094 34.125Z" fill="#333333"/>
<path d="M27.0156 23.9688C27.0156 24.5297 26.561 24.9844 26 24.9844C25.439 24.9844 24.9844 24.5297 24.9844 23.9688C24.9844 23.4078 25.439 22.9531 26 22.9531C26.561 22.9531 27.0156 23.4078 27.0156 23.9688Z" fill="#333333"/>
<path d="M27.0156 30.0625C27.0156 30.6235 26.561 31.0781 26 31.0781C25.439 31.0781 24.9844 30.6235 24.9844 30.0625C24.9844 29.5015 25.439 29.0469 26 29.0469C26.561 29.0469 27.0156 29.5015 27.0156 30.0625Z" fill="#333333"/>
<path d="M20.9219 34.125C20.9219 34.686 20.4672 35.1406 19.9062 35.1406C19.3453 35.1406 18.8906 34.686 18.8906 34.125C18.8906 33.564 19.3453 33.1094 19.9062 33.1094C20.4672 33.1094 20.9219 33.564 20.9219 34.125Z" fill="#333333"/>
<path d="M16.8594 28.0312C16.8594 28.5922 16.4047 29.0469 15.8438 29.0469C15.2828 29.0469 14.8281 28.5922 14.8281 28.0312C14.8281 27.4703 15.2828 27.0156 15.8438 27.0156C16.4047 27.0156 16.8594 27.4703 16.8594 28.0312Z" fill="#333333"/>
<path d="M12.7969 34.125C12.7969 34.686 12.3422 35.1406 11.7812 35.1406C11.2203 35.1406 10.7656 34.686 10.7656 34.125C10.7656 33.564 11.2203 33.1094 11.7812 33.1094C12.3422 33.1094 12.7969 33.564 12.7969 34.125Z" fill="#333333"/>
<path d="M6.43652 45.2064L7.67035 47.6749C8.19046 48.7139 9.23465 49.3594 10.3959 49.3594H41.6041C42.7654 49.3594 43.8099 48.7139 44.3297 47.6749L45.5389 45.256C48.7198 44.8708 52 41.837 52 38.1875C52 37.6265 51.5453 37.1719 50.9844 37.1719H50.7106C49.9858 35.608 48.9654 34.8681 48.1958 34.3103C47.3765 33.7164 47.2055 33.568 47.2809 32.9138C47.5773 30.339 46.2867 27.5008 44.9434 26.5638C43.3696 25.4656 42.1711 25.2383 41.3776 25.0875C40.6329 24.9463 40.5262 24.907 40.3235 24.5468C39.0635 22.3108 36.6883 20.9219 34.125 20.9219C33.4569 20.9219 32.8936 21.0393 32.4409 21.1333C31.5891 21.3111 31.3947 21.3341 30.9849 20.931C29.6471 19.6158 27.8777 18.8914 26.002 18.8906C26.0012 18.8906 26.0004 18.8906 25.9996 18.8906C24.1235 18.8906 22.3533 19.6151 21.0155 20.931C20.6053 21.3341 20.4105 21.3107 19.5567 21.1329C19.1045 21.0389 18.5419 20.9219 17.875 20.9219C14.4957 20.9219 13.0782 22.7385 12.1403 23.941C11.6178 24.6103 11.3048 24.9911 10.9414 25.0328C8.89584 25.2672 7.21887 26.1599 6.09137 27.6139C4.93808 29.1012 4.45764 31.0412 4.73932 33.076C4.79922 33.5089 4.70877 33.6295 3.86176 34.2508C3.07028 34.8304 2.02133 35.5996 1.28976 37.1719H1.01562C0.454651 37.1719 0 37.6265 0 38.1875C0 41.81 2.67435 44.6792 6.43652 45.2064ZM44.8906 43.2656H38.1875C37.6265 43.2656 37.1719 43.7203 37.1719 44.2812C37.1719 44.8422 37.6265 45.2969 38.1875 45.2969H43.2474L42.5126 46.7664C42.3393 47.1127 41.9909 47.3281 41.6041 47.3281H10.3959C10.0087 47.3281 9.66074 47.1127 9.48737 46.7664L8.75262 45.2969H30.0625C30.6235 45.2969 31.0781 44.8422 31.0781 44.2812C31.0781 43.7203 30.6235 43.2656 30.0625 43.2656H7.71875C4.69925 43.2656 2.59579 41.5042 2.13123 39.2023H49.8414C49.2701 41.4768 46.887 43.2656 44.8906 43.2656ZM5.06265 35.8889C5.91879 35.2612 6.98441 34.4805 6.75153 32.7975C6.5484 31.3304 6.89316 29.8947 7.69653 28.8584C8.48126 27.8468 9.68335 27.2215 11.1731 27.0505C12.4001 26.9101 13.1131 25.9964 13.7419 25.1903C14.6393 24.0398 15.4871 22.9531 17.875 22.9531C18.3328 22.9531 18.7446 23.0388 19.1433 23.1217C20.078 23.3161 21.2408 23.5577 22.4394 22.3795C24.4024 20.4486 27.5972 20.4486 29.5606 22.3795C30.7596 23.5585 31.9216 23.3165 32.8551 23.1221C33.2538 23.0388 33.666 22.9531 34.125 22.9531C35.9563 22.9531 37.6535 23.9457 38.5537 25.5438C39.2317 26.7478 40.1703 26.926 40.9987 27.0831C41.7323 27.2223 42.5638 27.3802 43.7814 28.2296C44.4149 28.6716 45.4853 30.7492 45.2628 32.6817C45.0493 34.5388 46.1328 35.3239 47.0036 35.9547C47.467 36.2903 47.9391 36.6343 48.3533 37.1719H3.64832C4.07837 36.6117 4.57547 36.2459 5.06265 35.8889Z" fill="#333333"/>
<path d="M27.7747 2.98182C27.4022 2.56247 26.7599 2.52439 26.3409 2.89692C25.9216 3.26984 25.8835 3.91175 26.2564 4.33069C27.2613 5.46177 27.2613 7.94449 26.2564 9.07557C24.5564 10.9882 24.5564 14.6056 26.2564 16.5182C26.6282 16.9371 27.2705 16.976 27.6902 16.6031C28.1096 16.2302 28.1472 15.5883 27.7747 15.1693C26.7698 14.0382 26.7698 11.5555 27.7747 10.4244C29.4747 8.51181 29.4747 4.89444 27.7747 2.98182Z" fill="#FF9D5D"/>
<path d="M21.681 2.98182C21.3084 2.56247 20.6661 2.52439 20.2472 2.89692C19.8278 3.26984 19.7898 3.91175 20.1627 4.33069C21.1676 5.46177 21.1676 7.94449 20.1627 9.07557C18.4627 10.9882 18.4627 14.6056 20.1627 16.5182C20.5344 16.9371 21.1767 16.976 21.5965 16.6031C22.0158 16.2302 22.0535 15.5883 21.681 15.1693C20.676 14.0382 20.676 11.5555 21.681 10.4244C23.3809 8.51181 23.3809 4.89444 21.681 2.98182Z" fill="#333333"/>
<path d="M33.8685 2.98182C33.4959 2.56247 32.8536 2.52439 32.4347 2.89692C32.0153 3.26984 31.9773 3.91175 32.3502 4.33069C33.3551 5.46177 33.3551 7.94449 32.3502 9.07557C30.6502 10.9882 30.6502 14.6056 32.3502 16.5182C32.7219 16.9371 33.3642 16.976 33.784 16.6031C34.2033 16.2302 34.241 15.5883 33.8685 15.1693C32.8635 14.0382 32.8635 11.5555 33.8685 10.4244C35.5684 8.51181 35.5684 4.89444 33.8685 2.98182Z" fill="#333333"/>
</g>
<defs>
<clipPath id="clip0">
<rect width="52" height="52" fill="white"/>
</clipPath>
</defs>
</svg>
