<svg width="50" height="50" viewBox="0 0 50 50" fill="none" xmlns="http://www.w3.org/2000/svg">
<path d="M48.0936 21.4295C47.9185 20.7947 47.5811 20.2165 47.1144 19.7519C46.6478 19.2873 46.0682 18.9523 45.4327 18.7799C44.4709 18.5066 43.4707 18.3934 42.4721 18.4448C43.6756 17.0119 44.3862 15.5932 43.9495 14.4702C43.4952 13.3049 42.7112 12.6299 41.7987 12.6182H41.7737C40.8307 12.6182 39.9745 13.3186 39.4791 14.4967C39.4545 14.5553 39.4295 14.6217 39.4045 14.685C39.2552 14.1999 39.0714 13.726 38.8545 13.267C38.574 12.6724 38.1433 12.1611 37.605 11.7836C37.0667 11.4061 36.4393 11.1754 35.7846 11.1143C35.4885 11.083 35.1896 11.1354 34.9218 11.2656C34.654 11.3957 34.4281 11.5984 34.2698 11.8506C33.885 12.5303 34.0745 13.4627 34.835 14.6213C35.8784 16.0958 36.4815 17.8365 36.5741 19.6405C35.6987 19.0014 34.742 18.5256 33.5584 18.6276C32.8582 18.7044 32.1824 18.9292 31.5756 19.2869C31.9586 18.4791 32.1215 17.5845 32.0479 16.6936C31.9818 16.0987 31.7915 15.5244 31.4894 15.0078C31.1872 14.4912 30.7798 14.0438 30.2937 13.6947C29.8076 13.3455 29.2536 13.1024 28.6675 12.981C28.0815 12.8596 27.4764 12.8627 26.8916 12.9901C25.7667 13.2738 24.7701 13.9283 24.0627 14.8479C23.5495 14.7046 23.0031 14.7375 22.5108 14.9412C22.2682 15.0386 22.0381 15.1645 21.8252 15.3162C21.5955 15.0646 21.3156 14.8639 21.0035 14.7272C20.6914 14.5904 20.3541 14.5207 20.0133 14.5224C19.6726 14.5242 19.336 14.5974 19.0253 14.7373C18.7146 14.8772 18.4368 15.0808 18.2096 15.3348C17.9825 15.5888 17.8112 15.8876 17.7068 16.2119C17.6023 16.5363 17.5671 16.8789 17.6033 17.2177C17.6395 17.5565 17.7464 17.884 17.917 18.1789C18.0877 18.4738 18.3183 18.7297 18.594 18.9299C18.4489 19.3558 18.4011 19.8089 18.4541 20.2557C17.6241 19.6347 16.6553 19.2251 15.6315 19.0623C15.4815 17.944 14.8381 16.8381 13.9256 16.4682C13.6599 15.5624 13.0677 14.7874 12.2635 14.2932C11.7896 14.0012 11.2305 13.879 10.678 13.9467C10.1076 12.8837 9.19402 12.0452 8.08617 11.5678C7.51147 11.3283 6.89102 11.2185 6.26902 11.2463C5.64703 11.274 5.03882 11.4386 4.48773 11.7284C3.92508 11.9958 3.42839 12.3841 3.03311 12.8656C2.63783 13.3471 2.3537 13.9099 2.20101 14.5139C1.91859 15.6868 2.04183 16.9208 2.55062 18.0147C2.16621 18.4131 1.92813 18.93 1.87523 19.4811C1.78646 20.4235 2.05096 21.3653 2.61742 22.1237C2.3725 23.042 2.84945 24.1319 3.49437 24.858C4.15844 25.6069 4.9557 25.9741 5.68656 25.8975C5.95331 26.2531 6.28459 26.5554 6.66312 26.7885H6.64086C6.54615 26.7885 6.45248 26.8082 6.36579 26.8464C6.27909 26.8845 6.20126 26.9402 6.13722 27.01C6.07318 27.0797 6.02432 27.1621 5.99375 27.2517C5.96317 27.3413 5.95155 27.4363 5.95961 27.5307C6.31117 31.7045 8.01742 39.0022 15.353 42.4916C14.1186 43.8566 13.4178 45.6209 13.3791 47.4608C13.3791 47.5506 13.3967 47.6395 13.4311 47.7224C13.4654 47.8054 13.5158 47.8808 13.5792 47.9443C13.6427 48.0078 13.7181 48.0581 13.8011 48.0924C13.884 48.1268 13.9729 48.1444 14.0627 48.1444H35.9377C36.0275 48.1444 36.1164 48.1268 36.1994 48.0924C36.2824 48.0581 36.3577 48.0078 36.4212 47.9443C36.4847 47.8808 36.5351 47.8054 36.5694 47.7224C36.6037 47.6395 36.6214 47.5506 36.6213 47.4608C36.5829 45.6212 35.8825 43.8571 34.6487 42.492C41.9842 39.0014 43.6912 31.7037 44.042 27.5311C44.0501 27.4366 44.0384 27.3415 44.0078 27.2518C43.9772 27.1621 43.9282 27.0797 43.864 27.0099C43.7999 26.9401 43.7219 26.8845 43.635 26.8464C43.5482 26.8084 43.4544 26.7888 43.3596 26.7889H40.5471C41.2991 24.5936 40.6041 23.2463 39.5295 22.1494C41.1311 21.8881 42.8975 22.158 44.803 22.9756C45.3457 23.2323 45.9341 23.3784 46.5338 23.4053C46.9305 23.421 47.3198 23.2945 47.6315 23.0487C47.8534 22.8499 48.0146 22.5924 48.0964 22.3058C48.1782 22.0193 48.1772 21.7155 48.0936 21.4295ZM40.1955 16.5459C40.4018 15.9354 40.5795 15.408 40.7397 15.0264C41.042 14.3061 41.4768 13.9854 41.7752 13.9854H41.7807C42.103 13.9893 42.4377 14.3565 42.6756 14.9662C42.9608 15.6987 41.8553 17.5287 38.8397 20.0994C39.3559 18.9405 39.8085 17.7542 40.1955 16.5459ZM35.4584 12.5252C35.6027 12.463 35.7645 12.4549 35.9143 12.5022C36.2801 12.5834 36.623 12.746 36.9173 12.978C37.2116 13.2099 37.4499 13.5053 37.6143 13.842C38.2174 15.0311 38.472 16.3664 38.3487 17.694C38.2104 18.0713 38.0612 18.4549 37.8998 18.8393C37.6617 17.0542 37.0026 15.3512 35.9768 13.8709C35.3995 12.9889 35.4221 12.5842 35.4584 12.5252ZM23.008 16.2147C23.1538 16.1448 23.3153 16.114 23.4766 16.1254C23.6379 16.1367 23.7934 16.1899 23.928 16.2795C24.0075 16.3338 24.0977 16.3706 24.1925 16.3877C24.2873 16.4047 24.3846 16.4015 24.4781 16.3783C24.5716 16.3551 24.6591 16.3124 24.7349 16.2531C24.8108 16.1937 24.8732 16.119 24.9182 16.0338C25.4256 15.1836 26.2481 14.568 27.2069 14.3209C27.6014 14.2384 28.0087 14.2388 28.403 14.3222C28.7973 14.4055 29.17 14.57 29.4973 14.8051C29.8247 15.0402 30.0996 15.3408 30.3045 15.6878C30.5094 16.0349 30.6399 16.4207 30.6877 16.8209C30.76 17.8063 30.4401 18.7803 29.7979 19.5311C29.7337 19.5981 29.684 19.6776 29.6518 19.7646C29.6195 19.8516 29.6055 19.9443 29.6104 20.0369C29.6154 20.1296 29.6393 20.2202 29.6807 20.3033C29.7221 20.3863 29.78 20.46 29.851 20.5198C28.8675 21.3893 27.9511 22.332 27.1096 23.3397C26.9823 23.2422 26.8244 23.1934 26.6643 23.2022C26.6436 23.2022 25.3659 23.2803 24.1014 23.4983L25.5791 21.4381C26.2464 21.2145 26.9485 21.1129 27.6518 21.1381C27.7408 21.1496 27.8312 21.1434 27.9178 21.1199C28.0044 21.0965 28.0856 21.0562 28.1566 21.0014C28.2276 20.9465 28.2872 20.8782 28.3318 20.8004C28.3765 20.7226 28.4054 20.6367 28.4168 20.5477C28.4283 20.4587 28.4221 20.3683 28.3987 20.2817C28.3752 20.1951 28.3349 20.1139 28.2801 20.0429C28.2252 19.9718 28.157 19.9123 28.0791 19.8677C28.0013 19.823 27.9154 19.7941 27.8264 19.7827C27.4692 19.7513 27.1097 19.7573 26.7537 19.8006L28.0705 17.9647C28.1228 17.8918 28.1603 17.8093 28.1807 17.7219C28.2011 17.6345 28.2041 17.5439 28.1895 17.4554C28.1749 17.3669 28.143 17.2821 28.0957 17.2058C28.0483 17.1296 27.9864 17.0635 27.9135 17.0112C27.8406 16.9589 27.7581 16.9214 27.6707 16.901C27.5833 16.8806 27.4928 16.8776 27.4042 16.8922C27.3157 16.9068 27.2309 16.9387 27.1547 16.986C27.0784 17.0334 27.0123 17.0953 26.96 17.1682L25.6412 19.0065C25.5677 18.6541 25.4582 18.3102 25.3143 17.9803C25.2347 17.8174 25.0936 17.6928 24.9221 17.6339C24.7506 17.575 24.5628 17.5866 24.3998 17.6662C24.2369 17.7459 24.1123 17.8869 24.0534 18.0584C23.9945 18.2299 24.0062 18.4178 24.0858 18.5807C24.3363 19.2402 24.4651 19.9397 24.4659 20.6452L22.9893 22.7041C22.7901 21.4346 22.4526 20.1967 22.4471 20.1772C22.3953 20.0063 22.2787 19.8625 22.1222 19.7765C21.9657 19.6905 21.7817 19.6691 21.6097 19.717C21.4377 19.7649 21.2912 19.8782 21.2016 20.0326C21.112 20.1871 21.0864 20.3705 21.1303 20.5436C21.3854 21.4608 21.8225 23.5225 21.7584 24.4198L20.3373 26.401C20.33 25.7449 20.2381 25.0926 20.0639 24.46C19.8018 23.3057 19.5561 22.2151 20.1506 21.3823C20.2561 21.2352 20.2989 21.0522 20.2696 20.8736C20.2403 20.6949 20.1413 20.5352 19.9944 20.4295C19.7174 20.2303 19.7717 19.6608 19.9401 19.2159C20.2077 18.5065 20.7272 18.044 21.0276 18.0748C21.1931 18.0928 21.3595 18.0492 21.4949 17.9521C21.6302 17.8551 21.725 17.7116 21.7612 17.5491C21.8423 17.2746 21.987 17.0232 22.1834 16.8151C22.1889 16.8088 22.1948 16.8026 22.1998 16.7963C22.4218 16.5438 22.6981 16.3449 23.008 16.2147ZM21.7424 26.7889L22.8752 25.2108C23.9081 24.8924 24.9743 24.6943 26.0526 24.6205C25.5088 25.2998 24.9557 26.0268 24.3983 26.7889H21.7424ZM20.0276 15.8827C20.1886 15.883 20.3474 15.9195 20.4924 15.9894C20.6374 16.0593 20.7649 16.1609 20.8655 16.2866C20.7631 16.4341 20.6733 16.59 20.5971 16.7526C20.0554 16.9082 19.5811 17.2402 19.2495 17.6959C19.1045 17.5438 19.0074 17.3525 18.9702 17.1456C18.933 16.9388 18.9573 16.7256 19.0402 16.5325C19.1231 16.3394 19.2608 16.1749 19.4363 16.0594C19.6119 15.9439 19.8174 15.8824 20.0276 15.8827ZM18.4565 22.1092C18.3933 23.0024 18.4859 23.8997 18.7299 24.7612C18.9018 25.3314 18.9789 25.9261 18.958 26.5213C18.9451 26.6094 18.9384 26.6983 18.9377 26.7873H16.9784L16.2647 26.0737H17.7041C17.8854 26.0737 18.0593 26.0016 18.1875 25.8734C18.3157 25.7452 18.3877 25.5714 18.3877 25.3901C18.3877 25.2088 18.3157 25.0349 18.1875 24.9067C18.0593 24.7785 17.8854 24.7065 17.7041 24.7065H16.2643L17.2827 23.6881C17.4072 23.5592 17.4761 23.3866 17.4746 23.2073C17.4731 23.0281 17.4012 22.8566 17.2745 22.7298C17.1478 22.6031 16.9764 22.5311 16.7971 22.5296C16.6179 22.528 16.4452 22.5968 16.3162 22.7213L15.2975 23.7397V22.3014C15.2975 22.1201 15.2255 21.9462 15.0973 21.818C14.9691 21.6898 14.7952 21.6178 14.6139 21.6178C14.4326 21.6178 14.2587 21.6898 14.1305 21.818C14.0023 21.9462 13.9303 22.1201 13.9303 22.3014V23.7409L12.9123 22.7229C12.7841 22.5947 12.6103 22.5227 12.4289 22.5227C12.2476 22.5227 12.0738 22.5947 11.9455 22.7229C11.8173 22.8511 11.7453 23.025 11.7453 23.2063C11.7453 23.3876 11.8173 23.5615 11.9455 23.6897L12.9639 24.708H11.5237C11.3424 24.708 11.1685 24.7801 11.0403 24.9083C10.9121 25.0365 10.8401 25.2103 10.8401 25.3916C10.8401 25.5729 10.9121 25.7468 11.0403 25.875C11.1685 26.0032 11.3424 26.0752 11.5237 26.0752H12.9639L12.2498 26.7889H9.76195C9.4504 25.7122 9.50588 24.5625 9.91967 23.5208C10.3335 22.4792 11.082 21.6048 12.0475 21.0354C13.0129 20.466 14.1403 20.2339 15.2521 20.3758C16.364 20.5177 17.397 21.0254 18.1885 21.819C18.2858 21.9162 18.3733 22.0131 18.4565 22.1092ZM6.21664 24.4565C6.13123 24.4283 6.04111 24.4173 5.95142 24.424C5.86174 24.4307 5.77426 24.455 5.69398 24.4955C5.35961 24.6643 4.86273 24.3424 4.51625 23.9522C3.97523 23.3428 3.80648 22.6381 3.98851 22.3623C4.08042 22.2241 4.11882 22.0571 4.09653 21.8926C4.07424 21.7281 3.9928 21.5774 3.86742 21.4686C3.63908 21.2252 3.46472 20.9363 3.35574 20.6209C3.24675 20.3055 3.20561 19.9706 3.235 19.6381C3.24225 19.4657 3.2942 19.2981 3.38577 19.1518C3.47733 19.0056 3.60535 18.8856 3.75726 18.8037C3.84248 18.7586 3.91717 18.696 3.97645 18.62C4.03572 18.5439 4.07823 18.4562 4.10118 18.3626C4.12413 18.2689 4.127 18.1715 4.1096 18.0766C4.0922 17.9818 4.05493 17.8917 4.00023 17.8123C3.45751 16.928 3.28635 15.8649 3.52406 14.8549C3.628 14.4405 3.82331 14.0545 4.09569 13.7253C4.36807 13.396 4.71063 13.1319 5.09828 12.9522C5.47457 12.7502 5.89124 12.6349 6.31783 12.6146C6.74442 12.5943 7.17015 12.6696 7.56391 12.835C8.51435 13.2497 9.26241 14.0232 9.64516 14.9869C9.67599 15.0781 9.7257 15.1617 9.79106 15.2323C9.85642 15.3029 9.93594 15.3589 10.0244 15.3966C10.1129 15.4344 10.2084 15.4531 10.3046 15.4514C10.4008 15.4497 10.4955 15.4278 10.5827 15.3869C10.7406 15.3149 10.9145 15.285 11.0875 15.3002C11.2604 15.3154 11.4264 15.3752 11.5694 15.4737C11.852 15.6495 12.0942 15.8831 12.2802 16.1591C12.4662 16.4351 12.5918 16.7473 12.6487 17.0752C12.66 17.2409 12.7313 17.3968 12.8492 17.5137C12.9671 17.6307 13.1235 17.7007 13.2893 17.7108C13.6377 17.7319 14.0655 18.3112 14.2291 18.9971C12.6611 19.085 11.1805 19.7474 10.0698 20.8577C10.012 20.9155 9.95922 20.9748 9.90375 21.0366L9.29711 19.8174C9.41384 19.084 9.66351 18.378 10.0338 17.7342C10.0855 17.6608 10.1222 17.5779 10.1419 17.4903C10.1615 17.4027 10.1638 17.3121 10.1484 17.2237C10.133 17.1352 10.1004 17.0507 10.0524 16.9748C10.0043 16.899 9.9418 16.8334 9.8684 16.7817C9.79499 16.73 9.71212 16.6933 9.62453 16.6736C9.53693 16.654 9.44632 16.6518 9.35787 16.6671C9.26942 16.6825 9.18486 16.7151 9.10902 16.7631C9.03318 16.8112 8.96754 16.8737 8.91586 16.9471C8.70399 17.2791 8.52788 17.6327 8.39047 18.0018L7.30492 15.8385C7.2238 15.6763 7.08158 15.553 6.90953 15.4957C6.73749 15.4384 6.54972 15.4517 6.38754 15.5328C6.22535 15.614 6.10203 15.7562 6.04471 15.9282C5.98739 16.1003 6.00076 16.288 6.08187 16.4502L7.16508 18.6151C6.78768 18.5038 6.39959 18.4327 6.00727 18.403H5.98617C5.80487 18.4003 5.62993 18.4697 5.49982 18.596C5.36972 18.7223 5.29511 18.8951 5.29242 19.0764C5.28973 19.2577 5.35917 19.4326 5.48546 19.5627C5.61175 19.6929 5.78456 19.7675 5.96586 19.7702C6.70273 19.8604 7.41707 20.0838 8.07406 20.4295L9.00023 22.2799C8.92393 22.4169 8.85323 22.5562 8.78812 22.6979C7.82992 22.394 6.92328 22.1752 6.63422 22.1119C6.45685 22.0743 6.27182 22.1087 6.11981 22.2076C5.9678 22.3064 5.86128 22.4615 5.82367 22.6389C5.78606 22.8163 5.82046 23.0013 5.91928 23.1533C6.0181 23.3053 6.17326 23.4118 6.35062 23.4494C6.68305 23.5198 7.51273 23.7268 8.35023 23.9912C8.20164 24.6602 8.16089 25.3485 8.22953 26.0303C7.89196 25.9424 7.57518 25.7884 7.29758 25.5772C7.01997 25.366 6.78706 25.1018 6.61234 24.7998C6.53114 24.6375 6.38882 24.514 6.21664 24.4565ZM14.7905 46.7772C15.0303 44.9221 16.1772 43.428 16.7776 43.0494H16.7846C16.7912 43.0494 16.7975 43.0494 16.8041 43.0494H33.2151H33.2229C33.8237 43.4291 34.9694 44.9244 35.2088 46.776L14.7905 46.7772ZM33.0905 41.6823H16.91C9.80492 38.8596 7.88109 32.2952 7.39672 28.1561H42.6037C42.1194 32.2952 40.1955 38.8596 33.0905 41.6823ZM26.0987 26.7889C26.6948 25.9983 27.2834 25.2537 27.8565 24.5717C30.337 21.6119 32.2405 20.1131 33.6768 19.9897C34.8065 19.8936 35.6877 20.6358 36.8018 21.578L36.9971 21.7401C37.0061 21.7487 37.0163 21.7565 37.026 21.7647L37.3811 22.0623L37.5534 22.2061L37.5686 22.219L37.6733 22.3061C37.6906 22.3225 37.7089 22.3379 37.728 22.3522C39.2155 23.6045 40.0577 24.5268 39.092 26.7889H26.0987ZM46.7627 21.994C46.7108 22.042 46.3151 22.135 45.3436 21.7205C43.745 20.9896 41.999 20.638 40.242 20.6932C40.4373 20.5198 40.6298 20.3445 40.8194 20.1674C42.1991 19.7017 43.6899 19.6792 45.083 20.103C45.444 20.2062 45.7772 20.3893 46.0578 20.6388C46.3384 20.8882 46.5593 21.1976 46.7041 21.544C46.7757 21.6825 46.7964 21.8417 46.7627 21.994Z" fill="#333333"/>
<path d="M38.6688 33.5625C38.1986 34.5203 37.6092 35.4147 36.9145 36.2246C36.8558 36.2925 36.811 36.3713 36.7828 36.4565C36.7545 36.5417 36.7433 36.6317 36.7498 36.7212C36.7564 36.8108 36.7804 36.8981 36.8207 36.9784C36.861 37.0586 36.9167 37.1301 36.9846 37.1888C37.0525 37.2475 37.1313 37.2923 37.2166 37.3205C37.3018 37.3488 37.3917 37.36 37.4813 37.3535C37.5708 37.347 37.6582 37.3229 37.7384 37.2826C37.8186 37.2423 37.8902 37.1866 37.9489 37.1187C38.7186 36.2215 39.3717 35.2304 39.8926 34.1691C39.9731 34.0066 39.9857 33.8188 39.9276 33.647C39.8696 33.4752 39.7457 33.3335 39.5832 33.2531C39.4207 33.1727 39.2329 33.1601 39.0612 33.2181C38.8894 33.2761 38.7477 33.4 38.6672 33.5625H38.6688Z" fill="#333333"/>
<path d="M22.4219 6.73828C22.9047 6.7379 23.3765 6.59438 23.7777 6.32588C24.1789 6.05738 24.4916 5.67595 24.676 5.22981C24.8605 4.78367 24.9086 4.29284 24.8142 3.81938C24.7198 3.34593 24.4871 2.91109 24.1456 2.56985C23.8041 2.22861 23.369 1.99628 22.8955 1.90224C22.422 1.80819 21.9312 1.85666 21.4852 2.0415C21.0392 2.22634 20.658 2.53926 20.3898 2.94071C20.1217 3.34215 19.9785 3.81409 19.9785 4.29688C19.9792 4.94449 20.237 5.56535 20.6951 6.0231C21.1532 6.48085 21.7743 6.73808 22.4219 6.73828ZM22.4219 3.22266C22.6343 3.22304 22.8417 3.28637 23.0181 3.40464C23.1945 3.52292 23.3319 3.69082 23.4129 3.88714C23.4939 4.08346 23.5149 4.29939 23.4733 4.50764C23.4316 4.71589 23.3291 4.90711 23.1788 5.05715C23.0285 5.20719 22.8371 5.3093 22.6288 5.35059C22.4205 5.39189 22.2046 5.3705 22.0084 5.28914C21.8122 5.20777 21.6446 5.07009 21.5266 4.89348C21.4087 4.71686 21.3457 4.50925 21.3457 4.29688C21.346 4.01173 21.4596 3.73839 21.6614 3.53694C21.8632 3.3355 22.1367 3.22245 22.4219 3.22266Z" fill="#FF9D5D"/>
<path d="M14.665 10.793C15.1479 10.793 15.6199 10.6498 16.0214 10.3815C16.4229 10.1133 16.7358 9.73196 16.9206 9.28585C17.1054 8.83974 17.1537 8.34886 17.0595 7.87527C16.9653 7.40168 16.7328 6.96667 16.3914 6.62523C16.0499 6.28379 15.6149 6.05127 15.1413 5.95707C14.6677 5.86287 14.1769 5.91121 13.7308 6.096C13.2846 6.28078 12.9033 6.5937 12.6351 6.99519C12.3668 7.39668 12.2236 7.8687 12.2236 8.35156C12.2244 8.99884 12.4818 9.6194 12.9395 10.0771C13.3972 10.5348 14.0178 10.7922 14.665 10.793ZM14.665 7.27734C14.8775 7.27734 15.0852 7.34035 15.2618 7.45838C15.4385 7.57642 15.5762 7.74419 15.6575 7.94048C15.7388 8.13677 15.7601 8.35276 15.7186 8.56113C15.6772 8.76951 15.5749 8.96092 15.4246 9.11115C15.2744 9.26138 15.083 9.36369 14.8746 9.40514C14.6662 9.44659 14.4502 9.42532 14.254 9.34401C14.0577 9.26271 13.8899 9.12502 13.7719 8.94837C13.6538 8.77171 13.5908 8.56402 13.5908 8.35156C13.591 8.06673 13.7043 7.79362 13.9057 7.5922C14.1071 7.39079 14.3802 7.27755 14.665 7.27734Z" fill="#FF9D5D"/>
<path d="M32.3984 10.0483C32.8813 10.0483 33.3533 9.90516 33.7548 9.63689C34.1563 9.36863 34.4692 8.98733 34.654 8.54122C34.8388 8.09511 34.8871 7.60423 34.7929 7.13064C34.6987 6.65705 34.4662 6.22204 34.1248 5.8806C33.7833 5.53916 33.3483 5.30664 32.8747 5.21244C32.4011 5.11824 31.9103 5.16659 31.4641 5.35137C31.018 5.53615 30.6367 5.84907 30.3685 6.25056C30.1002 6.65205 29.957 7.12407 29.957 7.60694C29.9578 8.25421 30.2152 8.87478 30.6729 9.33247C31.1306 9.79017 31.7512 10.0476 32.3984 10.0483ZM32.3984 6.53272C32.6109 6.53272 32.8186 6.59572 32.9952 6.71375C33.1719 6.83179 33.3096 6.99956 33.3909 7.19585C33.4722 7.39214 33.4935 7.60813 33.452 7.8165C33.4106 8.02488 33.3083 8.21629 33.158 8.36652C33.0078 8.51675 32.8164 8.61906 32.608 8.66051C32.3996 8.70196 32.1836 8.68069 31.9873 8.59938C31.7911 8.51808 31.6233 8.38039 31.5053 8.20374C31.3872 8.02708 31.3242 7.8194 31.3242 7.60694C31.3244 7.3221 31.4377 7.04899 31.6391 6.84758C31.8405 6.64617 32.1136 6.53292 32.3984 6.53272Z" fill="#FF9D5D"/>
</svg>
