<svg width="51" height="51" viewBox="0 0 51 51" fill="none" xmlns="http://www.w3.org/2000/svg">
<path d="M48.5585 24.4153H48.2795C48.2839 24.3247 48.2871 24.2343 48.2871 24.144C48.2871 21.0028 45.7315 18.4473 42.5904 18.4473C40.9999 18.4473 39.5182 19.0972 38.4534 20.2265C37.3886 19.0972 35.9069 18.4473 34.3164 18.4473C32.726 18.4473 31.2443 19.0972 30.1794 20.2265C29.1146 19.0972 27.6329 18.4473 26.0425 18.4473C24.452 18.4473 22.9703 19.0972 21.9055 20.2265C20.8407 19.0972 19.359 18.4473 17.7685 18.4473C16.1781 18.4473 14.6964 19.0972 13.6315 20.2265C12.5667 19.0972 11.085 18.4473 9.49457 18.4473C6.35338 18.4473 3.79781 21.0029 3.79781 24.144C3.79781 24.2343 3.80119 24.3248 3.80548 24.4153H2.44153C1.0953 24.4153 0 25.5106 0 26.8568C0 27.9234 0.687803 28.8319 1.64306 29.1635C1.94179 36.2834 6.91329 42.2155 13.5638 43.9649V45.3034C13.5638 46.6497 14.6591 47.745 16.0053 47.745H34.9947C36.3409 47.745 37.4362 46.6497 37.4362 45.3034V43.9649C44.0868 42.2154 49.0582 36.2834 49.3569 29.1634C50.3122 28.8319 51 27.9234 51 26.8568C51 25.5106 49.9047 24.4153 48.5585 24.4153ZM9.49467 20.0749C10.9027 20.0749 12.1916 20.7886 12.9424 21.9839C13.0914 22.221 13.3516 22.3649 13.6316 22.3649C13.9116 22.3649 14.1719 22.221 14.3208 21.9839C15.0718 20.7886 16.3607 20.0749 17.7686 20.0749C19.1765 20.0749 20.4655 20.7886 21.2164 21.9839C21.3653 22.221 21.6256 22.3649 21.9056 22.3649C22.1856 22.3649 22.4459 22.221 22.5948 21.9839C23.3457 20.7886 24.6347 20.0749 26.0426 20.0749C27.4505 20.0749 28.7395 20.7886 29.4904 21.9839C29.6393 22.221 29.8995 22.3649 30.1796 22.3649C30.4596 22.3649 30.7198 22.221 30.8687 21.9839C31.6197 20.7886 32.9086 20.0749 34.3165 20.0749C35.7244 20.0749 37.0134 20.7886 37.7643 21.9839C37.9132 22.221 38.1735 22.3649 38.4535 22.3649C38.7335 22.3649 38.9938 22.221 39.1427 21.9839C39.8937 20.7886 41.1826 20.0749 42.5905 20.0749C44.8343 20.0749 46.6596 21.9002 46.6596 24.144C46.6596 24.2343 46.6555 24.3248 46.6495 24.4153H5.43568C5.42961 24.3246 5.42552 24.2342 5.42552 24.144C5.42552 21.9002 7.25087 20.0749 9.49467 20.0749ZM48.5585 27.6706H8.95209C8.50256 27.6706 8.13829 28.0349 8.13829 28.4844C8.13829 28.9339 8.50256 29.2982 8.95209 29.2982H47.7211C47.2976 36.8488 41.0216 42.862 33.3669 42.862H20.8883C20.4387 42.862 20.0745 43.2263 20.0745 43.6758C20.0745 44.1254 20.4387 44.4896 20.8883 44.4896H33.3671C34.1969 44.4896 35.0123 44.4261 35.8086 44.3037V45.3034C35.8086 45.7523 35.4435 46.1173 34.9948 46.1173H16.0053C15.5565 46.1173 15.1915 45.7522 15.1915 45.3034V44.3037C15.9878 44.4261 16.8031 44.4896 17.6331 44.4896C18.0826 44.4896 18.4469 44.1254 18.4469 43.6758C18.4469 43.2263 18.0826 42.862 17.6331 42.862C9.97837 42.862 3.70238 36.8488 3.27894 29.2982H5.69686C6.1464 29.2982 6.51067 28.9339 6.51067 28.4844C6.51067 28.0349 6.1464 27.6706 5.69686 27.6706H2.44153C1.99269 27.6706 1.62772 27.3055 1.62772 26.8568C1.62772 26.408 1.99279 26.043 2.44153 26.043H48.5586C49.0074 26.043 49.3724 26.408 49.3724 26.8568C49.3724 27.3055 49.0073 27.6706 48.5585 27.6706Z" fill="#333333"/>
<path d="M23.3298 13.0216C23.3298 11.737 23.6609 11.1299 24.0442 10.427C24.4723 9.64228 24.9574 8.75266 24.9574 7.05303C24.9574 5.35349 24.4721 4.46418 24.0441 3.67936C23.8288 3.28481 23.3344 3.13938 22.9399 3.35473C22.5453 3.56999 22.3999 4.06435 22.6153 4.4589C22.9987 5.16185 23.3298 5.76867 23.3298 7.05303C23.3298 8.33769 22.9987 8.94471 22.6154 9.64765C22.1873 10.4324 21.7021 11.322 21.7021 13.0216C21.7021 14.7213 22.1873 15.6107 22.6154 16.3956C22.7631 16.6663 23.0424 16.8197 23.3306 16.8197C23.4621 16.8197 23.5957 16.7878 23.7195 16.7202C24.1141 16.5051 24.2595 16.0107 24.0442 15.616C23.6608 14.9132 23.3298 14.3063 23.3298 13.0216Z" fill="#FF9D5D"/>
<path d="M27.6706 13.0216C27.6706 11.737 28.0017 11.1299 28.385 10.427C28.8131 9.64228 29.2982 8.75266 29.2982 7.05303C29.2982 5.35349 28.8129 4.46418 28.3849 3.67936C28.1696 3.28481 27.6753 3.13938 27.2807 3.35473C26.8862 3.56999 26.7407 4.06435 26.9561 4.4589C27.3395 5.16185 27.6706 5.76867 27.6706 7.05303C27.6706 8.33769 27.3395 8.94471 26.9562 9.64765C26.5281 10.4324 26.043 11.322 26.043 13.0216C26.043 14.7213 26.5282 15.6107 26.9562 16.3956C27.1039 16.6663 27.3832 16.8197 27.6714 16.8197C27.803 16.8197 27.9365 16.7878 28.0604 16.7202C28.4549 16.5051 28.6003 16.0107 28.385 15.616C28.0017 14.9132 27.6706 14.3063 27.6706 13.0216Z" fill="#FF9D5D"/>
</svg>
